<svg xmlns="http://www.w3.org/2000/svg" viewBox="0 0 1200 700" role="img" aria-labelledby="title desc">
  <title id="title">Night city skyline</title>
  <desc id="desc">A stylized skyline with stars, moon and warm glowing windows.</desc>
  <rect width="1200" height="700" fill="#08131f"/>
  <rect y="470" width="1200" height="230" fill="#142238"/>
  <circle cx="980" cy="140" r="70" fill="#f5e4a5"/>
  <path d="M0 420 C140 360 260 290 390 320 C510 350 560 430 700 420 C840 410 940 320 1200 250 L1200 700 L0 700 Z" fill="#21304d"/>
  <g fill="#f6c270">
    <rect x="120" y="350" width="80" height="140" rx="6"/>
    <rect x="220" y="310" width="90" height="180" rx="6"/>
    <rect x="340" y="270" width="100" height="220" rx="6"/>
    <rect x="470" y="330" width="70" height="160" rx="6"/>
    <rect x="575" y="280" width="100" height="210" rx="6"/>
    <rect x="715" y="240" width="90" height="250" rx="6"/>
    <rect x="840" y="300" width="85" height="190" rx="6"/>
    <rect x="955" y="250" width="100" height="240" rx="6"/>
  </g>
  <g fill="#d08f3b" opacity="0.75">
    <rect x="140" y="380" width="40" height="20" rx="3"/>
    <rect x="240" y="340" width="40" height="20" rx="3"/>
    <rect x="360" y="312" width="40" height="20" rx="3"/>
    <rect x="490" y="375" width="40" height="20" rx="3"/>
    <rect x="620" y="325" width="40" height="20" rx="3"/>
    <rect x="740" y="285" width="40" height="20" rx="3"/>
    <rect x="860" y="335" width="40" height="20" rx="3"/>
    <rect x="985" y="300" width="40" height="20" rx="3"/>
  </g>
  <g fill="#f4e3c3" opacity="0.8">
    <circle cx="170" cy="120" r="3"/>
    <circle cx="260" cy="90" r="2"/>
    <circle cx="380" cy="110" r="2.5"/>
    <circle cx="650" cy="80" r="2"/>
    <circle cx="740" cy="120" r="3"/>
    <circle cx="840" cy="90" r="2.2"/>
  </g>
</svg>
