<svg xmlns="http://www.w3.org/2000/svg" viewBox="0 0 1200 700" role="img" aria-labelledby="title desc">
  <title id="title">Night city skyline</title>
  <desc id="desc">A realistic city skyline at night with glowing windows and streetlights.</desc>
  <rect width="1200" height="700" fill="#09111f"/>
  <rect y="0" width="1200" height="420" fill="url(#sky)"/>
  <circle cx="980" cy="140" r="70" fill="#f7df95"/>
  <circle cx="960" cy="130" r="38" fill="#ffe8aa" opacity="0.7"/>
  <g opacity="0.4">
    <circle cx="170" cy="120" r="3" fill="#ffffff"/>
    <circle cx="250" cy="95" r="2" fill="#ffffff"/>
    <circle cx="380" cy="110" r="2.5" fill="#ffffff"/>
    <circle cx="650" cy="80" r="2" fill="#ffffff"/>
    <circle cx="760" cy="120" r="3" fill="#ffffff"/>
    <circle cx="840" cy="90" r="2.2" fill="#ffffff"/>
  </g>
  <rect x="0" y="430" width="1200" height="270" fill="#17283b"/>
  <g fill="#1d2c3d">
    <rect x="70" y="285" width="95" height="250" rx="4"/>
    <rect x="200" y="238" width="115" height="297" rx="4"/>
    <rect x="345" y="205" width="130" height="330" rx="4"/>
    <rect x="515" y="260" width="88" height="275" rx="4"/>
    <rect x="635" y="220" width="135" height="315" rx="4"/>
    <rect x="805" y="180" width="120" height="355" rx="4"/>
    <rect x="955" y="245" width="110" height="290" rx="4"/>
  </g>
  <g fill="#e8b05a">
    <rect x="90" y="320" width="18" height="16" rx="2"/>
    <rect x="120" y="320" width="18" height="16" rx="2"/>
    <rect x="224" y="272" width="18" height="16" rx="2"/>
    <rect x="256" y="272" width="18" height="16" rx="2"/>
    <rect x="376" y="240" width="18" height="16" rx="2"/>
    <rect x="408" y="240" width="18" height="16" rx="2"/>
    <rect x="538" y="296" width="18" height="16" rx="2"/>
    <rect x="568" y="296" width="18" height="16" rx="2"/>
    <rect x="664" y="257" width="18" height="16" rx="2"/>
    <rect x="698" y="257" width="18" height="16" rx="2"/>
    <rect x="835" y="220" width="18" height="16" rx="2"/>
    <rect x="867" y="220" width="18" height="16" rx="2"/>
    <rect x="981" y="283" width="18" height="16" rx="2"/>
    <rect x="1012" y="283" width="18" height="16" rx="2"/>
  </g>
  <g fill="#f3b667" opacity="0.85">
    <rect x="105" y="350" width="26" height="18" rx="2"/>
    <rect x="240" y="306" width="26" height="18" rx="2"/>
    <rect x="392" y="275" width="26" height="18" rx="2"/>
    <rect x="552" y="330" width="26" height="18" rx="2"/>
    <rect x="682" y="292" width="26" height="18" rx="2"/>
    <rect x="852" y="252" width="26" height="18" rx="2"/>
    <rect x="998" y="316" width="26" height="18" rx="2"/>
  </g>
  <rect x="0" y="525" width="1200" height="175" fill="#101826"/>
  <g fill="#f4d779">
    <rect x="120" y="470" width="4" height="70"/>
    <rect x="170" y="470" width="4" height="70"/>
    <rect x="220" y="470" width="4" height="70"/>
    <rect x="430" y="470" width="4" height="70"/>
    <rect x="560" y="470" width="4" height="70"/>
    <rect x="740" y="470" width="4" height="70"/>
    <rect x="900" y="470" width="4" height="70"/>
  </g>
  <defs>
    <linearGradient id="sky" x1="0%" y1="0%" x2="0%" y2="100%">
      <stop offset="0%" stop-color="#13253f"/>
      <stop offset="100%" stop-color="#4b2c3d"/>
    </linearGradient>
  </defs>
</svg>
